<?xml version="1.0" encoding="UTF-8"?>
<svg id="Vrstva_1" xmlns="http://www.w3.org/2000/svg" version="1.1" viewBox="0 0 283.46 283.46">
  <!-- Generator: Adobe Illustrator 29.7.1, SVG Export Plug-In . SVG Version: 2.1.1 Build 8)  -->
  <defs>
    <style>
      .st0 {
        fill: #000000;
      }
    </style>
  </defs>
  <path class="st0" d="M179.68,117.94s.07-.03.1-.04c-.02,0-.03,0-.05.02-.02,0-.04.02-.05.03Z"/>
  <path class="st0" d="M179.73,116.87s-.04.02-.05.03c.03-.01.07-.03.1-.04-.02,0-.03,0-.05.02Z"/>
  <path class="st0" d="M263.94,129.29c-.05-.51-.1-1.03-.17-1.54-1.35-12.39-4.55-24.23-9.3-35.24-.06-.19-.15-.37-.24-.56-.22-.51-.45-1.03-.69-1.53-.27-.62-.57-1.24-.86-1.85-.03-.08-.07-.17-.12-.25-.42-.86-.85-1.72-1.28-2.58-18.08-35.29-52.71-60.68-93.64-65.96-.05-.01-.1-.03-.16-.05-.64-.08-1.29-.14-1.94-.22-.29-.03-.58-.07-.86-.1-1.21-.13-2.42-.23-3.64-.32-.19-.01-.39-.03-.58-.05-1.41-.1-2.82-.18-4.24-.23,0,0-.02,0-.03,0-1.48-.05-2.96-.08-4.45-.08-6.73,0-13.32.54-19.75,1.59-.19.03-.39.06-.58.09-.59.1-1.18.21-1.76.31-.41.08-.83.15-1.24.23-.11.02-.21.04-.32.06-.01,0-.02,0-.04.01-17.6,3.43-33.85,10.62-47.9,20.69,0,0-.01,0-.02,0-.22.16-.42.32-.64.48-1.05.76-2.09,1.54-3.11,2.33-.3.23-.6.47-.9.71-1.01.8-2,1.61-2.98,2.44-.27.23-.54.45-.8.68-.63.54-1.26,1.08-1.87,1.64.03-.02.06-.03.09-.05-5.69,5.07-10.92,10.65-15.58,16.69,0,0,0,0,0,0,.03-.09.05-.19.08-.28-4.65,6.03-8.76,12.52-12.22,19.37,0,.01,0,.02-.01.03-.45.88-.89,1.77-1.32,2.68-.24.49-.47,1-.7,1.5-4.71,10.25-8.05,21.25-9.8,32.79-.13.79-.24,1.58-.36,2.37-.03.26-.07.52-.1.79-1.08,8.28-1.33,16.77-.66,25.36,0,.04,0,.07.01.12.07.92.15,1.84.24,2.76.04.42.09.84.14,1.27.06.56.13,1.11.19,1.67.91,7.38,2.49,14.56,4.65,21.47.21.7.44,1.39.67,2.08.06.21.14.43.21.65,13.91,41.3,48.57,71.45,89.82,80.6.78.17,1.56.34,2.34.49,1.59.33,3.17.61,4.78.86.63.1,1.27.2,1.91.28.3.05.6.09.9.13.48.07.97.14,1.45.19.52.07,1.06.14,1.6.19.42.05.84.09,1.26.14.09.01.19.02.28.02.85.08,1.71.17,2.57.23h.05c.93.07,1.87.14,2.81.18.16.01.33.02.48.03.98.04,1.96.08,2.95.11,1,.03,2.01.04,3.01.04h.16c.88,0,1.77-.01,2.65-.03.76-.02,1.51-.04,2.27-.07.14,0,.27,0,.41-.01.86-.04,1.73-.09,2.6-.15,4.51-.29,9.05-.84,13.61-1.66,63.81-11.35,107.27-70.08,100.67-133.52ZM217.42,57.33c2.7,2.4,5.27,4.94,7.71,7.56.01.01.02.02.03.03,1.18,1.27,2.31,2.56,3.41,3.87.08.1.17.2.25.29,1.09,1.3,2.15,2.62,3.18,3.97.04.05.08.12.13.17,4.3,5.67,8.06,11.73,11.24,18.11-1.17,2.07-2.57,4.39-3.43,6.06-1.31,2.59-2.78,5.08-4.4,7.48-1.21,1.79-2.49,3.42-3.86,4.91-2.85-.64-5.69-1.26-8.56-1.84-1.75-.36-3.44-.68-5.06-.99l-20.29-24.85c-.46-3.33-1.29-6.21-2.34-9.48l6.7-18.84,15.3,3.53ZM127.17,242.18c-.52-.36-1.58-.46-2.26-.63-4.96-.82-9.88-2.77-14.73-4.32-8.69-2.59-16.88-6.89-25.35-10.21-.96-.43-3.12-1.74-2.47-3.03,1.29-1.77,3.43-3.07,5.4-4.16,1.64-.58,3.19-1.52,4.97-1.51,4.77.01,11.38,5.04,15.54,7.18,19.31,9.08,42.43,12,62.84,6.29,4.74-1.63,10.99-3.67,12.5-9.14.39-.96-.23-3.08,1.18-3.13,1.66.46,3.02,1.86,4.53,2.89,5.94,3.93,6.6,8.65.84,13.06l-.13.09c-17.62,12.09-41.19,10.86-61.55,8.11-1.91-.3-4.45-.74-5.99-1.21-.46-.13-.77-.28-.4-.33.93-.08,2.3.13,3.35.16.45.03,1.08.06,1.41.03.28-.01.39-.07.33-.16ZM45.6,92c2.03-9.09,2.77-18.96,9.52-25.29.69-.78,4.09-3.59,2.24-.63-6.33,8.84-7.51,20.67-11.01,31.11-.34.97-1,2.95-1.67,2.05-.65-.89.67-5.8.92-7.23ZM56.08,73.64c.77-1.59,2.2-2.87,2.47-1.46.06.33-1.44,4.87-1.99,6.6-6.78,20.95-.3,44.06-14.06,63.04-.68,1.28-5.34,5.77-4.62,2.12,15.05-20.71,8.04-48.02,18.21-70.31ZM124.96,24.67c.87-.04,1.76-.05,2.64-.06.02,0,.04,0,.06,0h.14c1.89-.02,4.06-.14,5.74.79,2.8,1.58,5.96,4.02,7.71,6.85,1.08,2.3-2.89-.95-3.42-1.29-3.29-2.31-6.92-4.46-10.9-5.34-2.07-.43-3-.7-3.18-.85.4-.03.81-.07,1.21-.09ZM156.59,24.83c1.9.08,4.05.36,5.33,1.8.36.4.6.6.58.92-.02.15-.18.23-.19.39h.01c.14.67,1.01,1.83.89,2.6-.13.31-.85-.09-1.82-.95-1.13-1.1-2.52-2.34-3.89-3.27-.37-.3-1.86-1.35-.92-1.5ZM156.76,31.59c-.19.25-1.62-1.21-2.57-1.53-.96-.42-1.96.46-2.91.11-1.35-.62-2.38-1.95-3.64-2.77-1.92-1.46-4.41-2.18-6.63-3.02-.63-.16-1.62-1.58-.83-1.91h.12c1.28.01,3.9,2.57,5.72,2.4.83-.28,1.53-.82,2.49-.48,3.57,1.02,7.18,3.67,8.25,7.21ZM123.37,32.12c.8,1.05,2.17,1.49,3.16,2.36,2.08,1.91-3.28.37-4.24.23-3.7-.66-7.84-2.14-2.69-5.07l.1-.06c1.87-1.17,4.19-1.51,6.27-.7,1.9.25,9.49,5.93,3.97,3.74-1.84-.72-3.5-1.47-5.61-1.38-.49.05-1.38.19-.97.88ZM89.45,54.82c.13.42.39.78.68,1.1,3.41,3.92,10.03,3.96,14.61,2.53.74-.13,1.64-.63,2.36-.41.09.12-.09.43-.28.71-1.02,1.41-2.46,2.48-4.15,2.87-5.18.97-10.07-1.21-14.8-3.06-4.77-1.93-6.93-4.79-1.46-8.18l.14-.07c3.52-1.93,4.5-1.79,8.11-3.7.29-.18.23-.84-.12-.78-2.66.72-7.41,2.33-2.26-1.36,5.5-3.49,12.44-3.44,18.07-.42,2.25,1.51-5.7.48-9.67,1.92-1.23.44-6.24,3.52-8.39,4.53-1.87.86-3.48,2.2-2.84,4.32ZM78.93,60.43c1.33,1.88,2.77,3.78,4.58,5.24,3.65,3,7.16,5.09,11.83,6.19,1.4.38,2.86.48,4.29.7.48.07,1.08.23,1.18.47.11.2-.1.44-.41.63-.61.39-1.67.59-2.51.66-3.99.23-8.22-1.93-11.69-3.83-3.96-2.17-7.6-6.54-8-9.73-.09-.75.25-.96.72-.34ZM109.94,37.07c-2.76-.32-9.76-.98-3.57-3.73l.12-.07c1.13-.55,2.97-1.92,4.25-2.3.81.71-.07,2.44.01,3.35.41,1.36,2.53,1.28,3.69,1.77.77.32,12.88,3.17,7.23,2.75-3.88-.5-7.78-1.55-11.73-1.77ZM71.69,46.66c.29-.16.67-.02,1.03.05,1.38.36,2.66,1.29,3.93,1.86l.08.04c.5.27.84.54.92.86.16.69-.65,1.47-1.34,1.26-.67-.17-1.44-1.23-2.34-1.97-.84-.73-2.01-1.45-2.25-1.85-.05-.09-.09-.18-.03-.25ZM75.13,67.78c.94-1.02,1.32,1.17,2.03,2.33,1.61,2.67,5.91,4.04,5.3,4.73-.35.39-1.79-.46-1.53.27,2.97,3.32,7.43,4.99,12.13,5.47,3.14.31,6.09-.11,8.47-2.17.67-.58,2.25-1.89,2.49-2.03.24-.14.58-.14.77.06.18.2.16.54.01.76-.91,1.46-2.97,2.79-4.48,3.57-1.45.76-3.03,1.22-4.66,1.35-2.85.25-5.8-.23-8.43-1.27-1.47-.58-2.67-.99-4.35-1.94-.91-.51-1.27-.08-.85.83.89,1.91-4.15-2.92-5.53-4.88-1.46-2.07-2.72-5.59-1.35-7.08ZM92.75,95.12c3.34.33,6.8-.3,9.85-1.5.44-.16,1.54-.48,1.87-.16.12.08.05.37-.08.59-3.41,3.76-12.72,4.23-17.42,1.68l-.07-.04c-3.17-2.51,4.79-.47,5.86-.57ZM81.39,88.22c-2.03-1.66-2.46-4.51.12-3.07,2.26,1.33,3.84,3.73,6.24,4.67.56.31,1.8.55,1.82,1.11.07,2.11-6.42-1.22-8.17-2.72ZM74.33,88.32c-.47.02-2.01-1.83-2.02-.75,0,2.65.52,8.4,2.52,12.56.42.87,1.8,2.61,1.89,3.11.11.48-.03,1.06-.46,1.32-.62.38-1.75,0-2.32-.44-2.01-1.55-2.76-3.55-3.49-6.98-1.42-6.65-.22-14.52-.06-15.49.17-1.02,1.61-1.06,1.84-.05.36,1.59.85,3.11,1.81,4.49.23.46,1.45,2.39.29,2.23ZM63.47,217.34c3.73-16.26,9.21-32.8,9.89-49.75v-.17c.05-.62.14-2.27.27-2.66.04-.08.07-.05.09.05.41,7.6-.2,15.48-1.13,23.08-.79,5.93-2.45,11.71-3.65,17.57-.74,3.56-.95,7.29-1.96,10.74-.34.49-1.18.5-1.72.71-.55.13-1.29.42-1.79.42ZM72.61,231.11c-.84-.65-1.68-1.31-2.51-1.99,1.26-.73,2.52-1.44,3.91-1.96.96-.38,2.25-.51,2.68-.03.19.2.2.54,0,.96-.94,1.46-2.51,2.27-4.08,3.03ZM77.81,202.89c-.65,3.35-.63,7.02-1.7,10.23-.91.71-2.27,1.12-3.34,1.67-.65.17-3.96,2.03-3.13.87,2.64-4.9,4.07-10.33,4.99-15.78,2.58-10.06,2.12-20.67,3.42-30.98.26-2.62-.19-5.47.88-7.95,1-1.5,1.56,1.27,1.69,2.84.43,5.08-.45,12.62-.68,17.72-.34,4.65-.08,9.36-.51,14.01-.34,2.51-1.17,4.88-1.62,7.37ZM75.45,150.19c-2.25-6.86-3.18-14.02-4.87-21.01-.3-1.41-.66-2.86-.48-4.28.16-1.13.86-1.29,1.55-.25,2.92,7.04,3.1,15.03,5.31,22.31.64,2.52,1.4,5.3,1.92,7.81l.03.13c.64,5.48-2.8-2.85-3.46-4.7ZM69.79,66.59l-.08.08c-1.41,1.37-3.25,2.52-4.84,3.65-1.55,1.1-3.05,2.59-4.73,3.51-.14.05-.18-.01-.19-.07,1.83-3.31,5.39-5.92,8.55-7.88,1.22-.77,3.15-1.21,1.29.7ZM39.57,186.99c-.05.16-.17.3-.33.35-.02.01-.04.02-.06.02-.21.02-.42-.12-.54-.29-.43-.71-.34-2.05-.41-2.85-.08-1.07-.14-2.15-.16-3.22-.02-2.14.12-4.28.43-6.4.3-2.39,1.29-5.25,2.06-7.53,2.54-6.73,6.68-12.88,8.19-20.08,1.27-5.06,1.23-10.35,1.82-15.49.65-2.84,1.29-.45,1.38.94.66,8.34-1.3,18.74-4.66,26.49-.77,1.76-1.73,3.44-2.49,5.22-.77,1.79-1.45,3.6-2.06,5.45-.93,2.85-1.68,5.74-2.2,8.69-.26,1.47-.48,2.95-.63,4.44-.08.75-.15,1.48-.19,2.23-.04.63.06,1.43-.15,2.03ZM37.18,165.94c-.24,2.18-.35,4.64-.84,6.73l-.05.17c-.19.61-.69,1.84-1.52,1.55-2.45-1.71-1.12-9.45-.82-12.13.98-5.65,3.62-10.74,7.14-15.31.83-1.34,4.38-4.56,2.62-.65-3.1,6.13-5.77,12.78-6.53,19.64ZM46.15,190.13c1.03-5.18,3.53-9.84,5.52-14.67,1.8-5.46,3.83-9.37,5.97-14.65,4.12-13.15,6.29-26.37,6.78-40.05.06-.83.17-3.12.81-3.59.16-.08.36.22.48.64.55,2.3.3,4.67.45,7.01.26,6.97-.57,13.95-1.18,20.85-.71,9.61-4.02,18.61-7.26,27.63-.48,1.35-1.09,2.88-2.66,3.06l-.1.04c-.55.21-1.17,1.3-1.43,1.92-2.78,6.69-4.36,13.79-6.67,20.69-.21.48-.46,1.33-.98,1.45-.26-.17-.27-.65-.33-1.02-.2-3.14-.02-6.26.57-9.31ZM60.78,88.59c.24-1.75.38-3.84,1.53-5.17.86-.87,1.6.03,1.7,1.13.23,1.81-.16,3.64-.34,5.44-.84,6-.81,11.24-1.46,17.28-.46,3.85.03,8.58-.08,12.44-.01.77-.08,4.14-.98,2.14-3.52-10.81-1.09-22.24-.38-33.27ZM53.77,161.05c-.24.81-.42,2.6-.94,3.02-.17-.34-.08-.97-.08-1.36.55-6.74,1.34-13.55,2.34-20.22,1.54-6.97,3.18-13.95,2.88-21.16.06-2.19.61-.38.86.57l.03.18c3.36,13.47-2.35,25.92-5.08,38.98ZM50.22,206.02c.03-2.23.59-3.07.99-5.04.64-6.05,1.6-12.21,3.92-17.82.4-1.08,1.94-2.86,2.32-.73.28,1.9-.37,4.67-.57,6.71-.47,3.63-.52,7.4-1.04,11.08-.2,1.17-.28,2.91-1.01,3.81-.48.5-.84-1.99-1.13-1.92-.13.04-.18.18-.24.28-.41,1.02-.67,4.5-.76,5.1v.1c-.38,1.53-.78,2.23-1.15,2.38-.39-.51-.75-1.03-1.13-1.55-.17-.73-.26-1.6-.2-2.4ZM56.45,215.91c.71-2.01,2.07-4.51,2.26-5.61,7.88-24.38,10.2-45.36,8.83-68.21,6.9,25.19-.67,50.41-8.25,74.51-.21.62-.28,1.32-.68,1.72-.74-.79-1.45-1.6-2.16-2.41ZM79.69,236.16c2.04-1.39,4.02-2.88,6.03-4.37,1.05-.73,1.56.18.68.98-1.7,1.56-3.51,2.96-5.39,4.25-.44-.28-.89-.57-1.33-.86ZM102.72,177.87c.03,5.58-.87,11.14-3.16,16.34-.05.11-.09.22-.14.33l-3.82-3.61c.63-2.52.8-5.07.73-8.04,2.1-4.75,4.3-9.47,6.6-14.15.07,3.06-.13,6.1-.21,9.14ZM95.08,164.63c-.34.68-.67,1.36-1,2.04-.97-4.09-1.75-8.17-2.89-12.14-.22-.83-.44-1.77-.49-2.57-.29-4.16,4.14-1.56,6.79-.33,1.29.61,2.45,1.45,3.28,2.52-1.84,3.08-3.73,6.55-5.69,10.48ZM90.39,182.32c-.25,6.28-1.59,12.79-3.44,18.76-.36,1.09-.73,2.24-1.16,3.34l-1.85,3.2c-1.26,1.09-1.59-1.39-1.29-3,3.12-12.18,5.09-25.39,2.78-37.82l-.03-.22c-.6-5.15-2.71-10.21-3.94-15.3-.85-6.89,3.52,1.86,4.13,3.75,3.97,8.67,5.18,17.52,4.8,27.29ZM82.16,237.73c1.15-.86,2.27-1.75,3.35-2.71,1.4-1.14,3.3-2.81,5.19-2.38.84.3.22,1.55-.25,2.04-1.67,1.78-3.5,3.34-5.43,4.76-.96-.55-1.91-1.12-2.85-1.71ZM95.9,241.92c2.46-1.94,5.37-6,8.84-4.55,1.23.82-.19,2.35-.97,3-2.15,1.71-4.27,3.47-6.36,5.26-1.28-.54-2.55-1.11-3.81-1.7.77-.66,1.54-1.33,2.3-2.02ZM92.29,243.3c-.33-.16-.66-.32-.98-.48,2.48-1.86,4.86-3.88,7.05-6.14.7-.55,1.14-.45.69.36-2.1,2.22-4.38,4.3-6.76,6.27ZM114.88,243.36l-.09.13c-2.04,2.08-4.03,4.17-6.02,6.26-.55-.17-1.09-.34-1.64-.52,1.88-1.9,3.8-3.78,5.79-5.64.54-.57,2.79-2,1.96-.23ZM109.13,165.41l-.02-.19c-.52-3.48,2.02-5.04,4.77-2.72.84,1,1.62,2.17,2.38,3.41,2.64,4.24,5.74,8.17,9.36,11.61,4.23,4.03,8.77,7.91,13.86,10.38,5.07,2.31,10.62,2.53,15.66,4.61,2.78.98,5.5,2.82,8.38,3.63,1.85.51,3.82-.09,5.09-1.52.56-.62,2.51-3.18,2.92-3.43,1.39-.5,1.4,4.12,1.53,5,.43,5.51-.27,11.12,1.27,16.43,2.4,8.01,3.25,9.36-5.45,12.22-11.9,3.77-25.36.91-37.09-2.17-10.81-2.28-18.98-11.21-22.81-21.27-2.11-5.28.03-10.74.39-16.23.34-6.35.59-13.73-.24-19.76ZM178.68,196.38c-.49-3.71-.5-7.42-.74-11.19-.06-1.76-.36-3.38.33-4.97.71-1.87,2.6-2.4,4.74-2.48.68-.02,1.36-.08,2.04-.18,1.04,2.51,2.06,5.03,3.01,7.57.31.87.62,1.72.92,2.57l-10.01,11.97c-.11-1.12-.19-2.23-.29-3.29ZM211.53,230.57c-.76.59-1.53,1.16-2.3,1.74-1.4-.91-2.75-1.87-3.97-2.96-1.71-2.28,1.97-.85,6.27,1.23ZM192.22,164.7c-2.52,8.68-16.84,7.08-23.11,6.46-9.28-1.5-14.12-2.55-22.18-5.04-8.82-2.72-15.73-5.91-26.65-14.66-5.89-4.71-10.15-10.93-12.9-17.5-.37-1.09-1.44-1.18-2.25-1.87-.47-.42-.81-.51-.94.01-.41,1.55.5,3.31.49,4.97-.27,7.72-10.15,3.96-14.4,1.8-8.47-4.23-12.13-13.72-13.68-22.66-1.85-11.66,10.43-18.09,16.09-6.18.33.89.75,2.65-.57,2.84-2.61.06-3.93-3.2-6-4.13-1.3-.63-2.5-1.24-3.86-.76-4.37,1.89-3.57,7.88-2.97,11.78,1.21,6.43,4.15,14.98,11.3,14.3.44-.09.79-.42.78-.7-.27-1.15-2.08-1.33-3.07-1.59-4.6-1.18-6.59-6.34-6.6-11.07-.11-3.55.33-6.65,4.78-5.34,1,.21,1.98.55,2.47,1.02.84.9-.55,2.14-.96,3.03-1.54,2.17-2.52,4.87-1.55,7.49,1.07,3.06,4.8,2.98,7.78,2.97,2.84.18,6.43.4,4.13-3.16-.77-1.07-1.51-2.33-.74-3.52.22-.41,1.01-1.09,1.3-1.64.4-.71.37-1.61.37-2.16-.02-.42-.11-1.29-.25-2.12-.05-.29-.15-.85-.12-1.16.05-.38.29-.71.64-.86.33-.15.8-.13,1.07.13.19.17.3.32.43.54.02.04.24.48.24.48.18.38.47,1,.65,1.36.11.27.21.55.31.81.58,1.41,2.9,7,3.94,8.97.37.67.81,1.3,1.34,1.86.18.19.36.35.49.43,1.17.69,2.51.65,3.68-.79,1.05-1.29,1.46-2.05,2.62-3.22,2.47-2.79,6.36-1.75,9.8-1.34,1.54.18,3.16.39,4.63-.09,1.13-.37,1.27-1.71.66-2.36-.69-.75-2.33-.65-3.28-.8-6.14-1.03-12.18-.96-15.46-7.74-.28-.59-1.56-3.33-2.43-5.68-1.14-3.15-3.89-2.13-4.77-1.8-2.25.98-8.42.92-7.99-1.19.14-.64,1.1-.13,1.53-.1,2.54.16,5.5.36,7.71-1.61.89-.8,1.53-2.07,2.68-2.54.55-.22,1.15-.16,1.74-.31.85-.23,1.39-.56,1.98-1,1.92-1.41,1.04-4.76,1-6.87-.04-2.09-.08-4.2-.49-6.25-.27-1.34-.69-2.66-.75-4.02-.08-2.31,1.37-4.23,3.05-5.67.57-.47,1.27-1.32,1.28-2.1,0-.39-.25-.81-.64-.84-.17-.02-.34.04-.51.06-.17.02-.43,0-.46-.18-.08-.49,3.18-3.54,3.46-4.28.36-.92-.67-.97-1.33-.66-.61.28-4.03,2.77-4.51,2.28-.57-.61,1.26-1.56,1.64-1.86.94-.69,1.9-1.39,2.83-2.11.81-.64,2.57-1.73,1.88-3.02-.24-.45-.68-.77-.99-1.19-.63-.86-.59-2.08-.17-3.06.45-1.08,2.17-4.53,4.16-7.16,2.94-3.89,11.9-9.66,17.21-12.01,3.7-1.64,12.47-5.04,17.43-3.62.93.27,2.55,1.01,3.76.92,1.32-.21,2.64-1.2,4.04-1.15,2.24-.18,4.61.83,6.68,1.39,3.71,1.1,6.15,1.99,9.24,5.18,1.74,1.75,3.01,4.21,4.27,6.28,2.06,3.23,3.48,7.08,4.02,10.86.24,1.65.69,3.25,1.27,4.82.67,1.84,1.41,3.73,1.56,4.34.15.58-.23.68-.82,1.05-1.93,1.11-5.74,1.87-8.13,2.99-1.28.6-2.32,1.63-2.96,2.89l-.04.08c-.85,1.67-1.39,3.5-1.52,5.38-.61,8.75,3.12,18.08,8.74,24.62,1.63,1.91,4.76,3.24,5.45,5.9.18.72.05,1.54-.25,2.23-.78,1.87-1.64,3.78-3.1,5.18-.41.46-.71.97-.98,1.54-.41,1.05-.55,2.55.2,3.53.22.2.52.22.66,0,.27-.72-.03-1.73.45-2.37.83-1.36,2.74-1.94,3.03-3.67.12-.6-.12-1.24.16-1.82.11-.55.67-.92.89-.29.38,1.95.1,4.58-1.24,6.19-.51.56-.48,1.46.42,1.48,3.19-.69,3.65-5.87,3-10.1-.18-1.18-.42-2.11-.66-2.98-.17-.56-.32-1.09-.52-1.4-.35-.5-.72-.82-1.37-1.31-2.86-2.16-5.89-4.95-7.37-8.39-.16-.36-.34-1.49-.16-1.85.16-.37.55-.57.97-.6,1.33-.1,3.4-.05,4.74-.22,2.64-.31,4.37-1.68,6.42-.63,5.48,6.81,4.29,17.27,2.89,26.16-.91,4.22-.53,8.93-1.35,13.06-1.44,6.77-2.73,12.93-3.71,18.45-.66,3.31-.6,7.06-1.69,10.3ZM184.26,85.97c-.45.29-1.74,1.31-2.11,1.83-.37.49-.69.93-1.03,1.44-.22.33-.27.34-.45.66-.06-.1-.4-1.45-.42-1.99.44-.62,1.61-1.88,2.3-2.44.49-.4,1.39-1.02,1.81-1.08-.04.46.08,1.11-.09,1.59ZM183.94,88.74c.15-.15.59-.5.63-.51-.14,2.32.43,4.57,2.44,5.69,1.84,1.3,4.07.29,4.95-1.56.39-.72.55-1.54.64-2.34.05-.42,0-2.02-.29-2.71.26.02,1.58.43,1.72.57.28.26.51,4.71-.21,5.81-.47.48-1.27.96-1.92,1.12-1.4.35-6.37,1.18-9.21.18l-.08-.05c-.44-.67-1.02-1.82-.98-2.75.69-1.53,1.33-2.39,2.32-3.43ZM188.24,88.64l.04.1c.24.77.08,2.11-.7,2.45-.62.24-1.31-.65-1.31-1.62-.08-1.43,1.42-2.4,1.97-.93ZM186.33,84.8c.03-.1.05-.8.05-1.05,0,0,1.35-.28,1.6-.2-.03.4-.28,1.19-.3,1.24-.81.05-1.21.38-1.29.3-.05-.04-.06-.22-.05-.29ZM188.64,88c0-.09.03-.18.07-.25.03-.03.05-.06.08-.09.06-.06.15-.11.23-.14.07-.01.14-.01.2,0,.07.01.13.03.19.06.05.03.11.08.14.14.04.05.07.12.09.18,0,.05,0,.09.01.14-.01.09-.03.18-.07.25-.03.03-.06.06-.08.09-.06.06-.15.1-.23.14-.07.01-.14.01-.2,0-.07-.01-.14-.03-.19-.06-.05-.03-.1-.08-.14-.14-.04-.05-.07-.12-.09-.18,0-.05,0-.09-.01-.14ZM189.9,83.57c.28-.08.96.13,1.28.18.28.05-.12,1.09-.25,1.32-.48-.07-.74-.17-.91-.18-.05-.01-.24-.06-.28-.11-.08-.06.17-1.22.17-1.22ZM193.38,86.04c-.24-.09-.47-.13-.63-.23.08-.09.42-1.26.42-1.31.4.1.74.16,1.04.33.17.16.28.23.23.95-.08,1.07-.72.4-1.06.27ZM194.4,82.93c-.1.14-.84-.55-.84-.55,0,0,.03-.08.04-.26.01-.15.02-.31-.01-.54,0-.67-.44-1.88-1.18-1.14-.37.46-.31,1.07-.56,1.36-.4-.05-1.27-.24-1.89-.3.06-.19.02-.5.04-.81.06-.62-.65-1.38-1.22-.75-.36.38-.38,1.28-.57,1.59-.5.05-1.36.2-1.99.26-.02-.25,0-.87-.35-1.23-.48-.48-1.04.03-1.07.55-.04.23-.22.83-.22.83,0,0-.09.1-.35.18-.61.17-2.38,1.29-3.38,2.16-.8.69-.83.55-.82-.45.09-1.57,1.3-2.95,2.04-4.25,1.14-1.81,2.71-2.23,4.42-2.77.52-.16,3.71-1.27,4.04-1.4,1.97-.75,2.56-.13,3.5,2.68.33,1,.87,4.15.36,4.84ZM193.54,49.66l-2.44,6.97c-.14-.44-.27-.87-.42-1.32-1.21-3.55-3.37-8.72-6.94-13.49-1.24-1.4-1.05-2.85-1.84-4.22-.68-1.19-1.64-2.38-2.59-3.44,2.97,1.04,5.9,2.21,8.78,3.49,3.03,6.45,5.45,12,5.45,12ZM57.61,55.51c2.35-2.15,3.78-3.53,6.89-4.09.51-.09,2.12-.26,2.61-.24,1.31.04,2.76.09,1.63-.37-.12-.13-2.44-.67-1.72-.82,2.26-.17,6.9,1.33,7.29,4.15.15.91-.22,1.07-1.08.65-5.61-3.24-10.21-1-15.15,1.86-.65.38-1.68,1.11-2.08.97-.33-.12.72-1.27,1.62-2.11ZM61.98,56.44l.14-.03c.97-.25.87.28,1.77.4,1.38.08,2.62-.33,4-.3.27,0,.23-.02.77.04,1.16.23-1.09.89-1.39.99-6.15,1.85-12.53,4.45-16.54,9.72-1.12,1.28-1.99,3.14-3.13,4.39,1.66-6.66,7.26-12.57,14.38-15.2ZM41.96,87.83c.06.39.12.79.15,1.2.24,3.35-.91,12.16-1.23,14.05-.35,2.07,2.2,1.59,3.19,1.13.63-.29.58.79.46,1.46-.5,2.81-1.24,9.44-2.41,14.44l-8.28-13.49c2.12-6.46,4.82-12.75,8.11-18.8ZM141.73,254.59c-9.66,0-19.14-1.2-28.26-3.53.7-.67,1.41-1.35,2.14-2.05,2.45-2.25,5.29-2.67,8.39-2.36,22.18,4.12,46.24,5.61,67.38-8.06,3.31-2.59,6.23-5.47,6.31-9.87-.03-.99-.37-2.14-.43-3.08-.09-1.04.81-.19,1.22.17,1.12,1,1.88,2.54,1.64,3.88-.18,1.69-1.14,3.83-1.39,5.67-.01.25.05.46.18.54.55.17,1.55-1.16,1.87-1.67,1.36-2.97,3.94-2.05,6.49-.46-19.02,13.53-41.72,20.82-65.53,20.82ZM227.13,180.65c-.4.61-.79,1.21-1.19,1.8l-27.97,2.09c-1.33-3.68-2.78-7.39-4.33-11.14,1.5-1.56,2.69-3.6,3.35-6.23,2.28-9.01,2.37-20.9,5.54-31.03l14.03-20.39c1.66.31,3.37.64,5.17,1.01,4.19.85,8.38,1.8,12.56,2.78,1.05,2.47,2,4.94,2.8,7.43,1.73,5.32,2.97,10.79,3.75,16.42.5,3.75.82,6.32.98,9.4-1.25,3.23-2.86,6.77-4.81,10.63-3.02,5.95-6.32,11.7-9.88,17.24ZM234.88,205.92l-2.7-17.42c2.13-3.03,4.28-6.35,6.45-10.01,4.03-6.81,7.64-13.95,10.84-21.39l4.53.28c-2.49,17.51-9.01,34.06-19.11,48.53Z"/>
  <path class="st0" d="M97.85,133.81c-.42.25-.39.62-.21,1.06.07.17.41.61.34.8-.16.41-.59-.02-.72-.34-1.67,2.49,2.87,5.08,3.94,1.84.29-.89.18-1.94-.55-2.59-.51-.52-2.04-1.21-2.79-.77Z"/>
  <path class="st0" d="M140.96,78.4c4.9.86,16.74,3.18,20.82,2.96.49-.03.87-.41,1.01-.88.37-1.29.58-2.69-.07-3.89-.24-.44-.68-.75-1.18-.84-2.65-.49-11.49-1.48-17.58-1.6-1.97-.04-3.65-.02-4.67.16-1.2.21-2.8.7-3.94,1.44-1.39.89-3.13,2.06-4.48,3.03-2.08,1.52-5.36,4.63-6.97,6.85-.33.46-.96,2.4.26,1.45,4.67-2.88,9.07-7.54,14.11-8.67.88-.2,1.8-.17,2.69,0Z"/>
  <path class="st0" d="M169.34,124.45c.63,1,2.04,2.39,3.86,2.34.69-.04,2.84.15,2.48-.96-.27-.33-1.51-.45-1.15-1.2.68-.33,1.57.06,2.27-.32.69-.2,1.24-1.1,1.86-1.09,1.12.51,2.03,1.77,3.37,1.14.65-.22.9-1.27.07-1.37l-.04-.04c.11-.6.61-1.35.74-1.99.15-.65-.08-1.56-.5-2.05-.2-.22-.44-.23-.8-.17-2.27.1-4.19.64-5.9,2.46-.93.75-1.88,1.49-3.3,1.51-3.1.05-1.64-4.75-.41-6.41.33-.64.96-1.17,1.08-1.86-.23-.99-1.15-.05-1.54.35-2.42,2-4.12,6.39-2.08,9.64Z"/>
  <path class="st0" d="M162.63,98.5l-.04-.16c-1.34-2.95-3.33-5.36-6-7.17-.23-.17-.4-.27-.46-.36.09-.23.47-.67.59-.89.87.34,4.37,2.44,5.17,1.9.1-.22-.67-.77-1.08-.94-1.74-.76-2.5-1.33-3.53-2.23-.57-.35-.09-1.44-.28-2.09-.07-.28-.2-.52-.37-.64-.74-.64-.86,1.67-1.31,1.51-.47-.19-1.26-.49-1.72-.75-.49-.41-.3-1.21-.71-1.73-.44-.82-1.2-1.01-1.4.09-.09.41-.09.91-.5.96-.66-.07-1.56-.19-2.16-.47-.23-.19-.2-.67-.37-1.03-.2-.67-.99-.78-1.36-.24-.24.28-.23.79-.41,1.08-.16.3-.6.28-1.03.33-.76.07-1.51.27-2.23.46-.16.02-.12.04-.17-.09-.18-.42-.78-1.06-1.4-.89-.61.18-.37,1.26-.53,1.63-1.77,1.04-3.77,2.3-5.39,3.83-2.23,1.94-3.75,4-5.02,6.02-.69.84-1.72,1.59-2.14,2.5-.79,1.77.92,2.47,2.33,1.63,3.24-2.3,4.67-6.66,7.54-9.25.83-.71,1.93-1.72,2.95-2.08.08.31,0,2.14,0,2.14,0,0-.5.37-.97.84-.21.19-.49.47-.62.43-.17.04-.24-.36-.39-.61-.2-.33-.59-.44-.86-.09-.6.66-.19,1.67-.42,2.46-.79,1.95-1.86,3.9-3.24,5.49-.62.86-1.64,1.26-2.32,2-.57.65-.3,1.86.66,1.87,5.06-.92,10.23.07,15.34-.62,4.05-.72,7.61-2.46,11.66-3.3.88-.17,2.48-.25,2.19-1.52ZM153.03,88.47c.37.09,1.25.43,1.67.6-.18.42-.28.55-.51.91-.23-.06-.78-.3-1.39-.46.08-.33.18-.7.23-1.05ZM148.6,87.71c.82.02,1.48.12,2.15.28-.1.49-.19.89-.36,1.36-.64,0-.91-.01-1.45.01-.33.01-.61.1-.54-.28.1-.44.16-.92.19-1.38ZM150.58,93.24c-.33.67-1.26.38-1.3-.32v-.17c.17-1.19,1.86-.51,1.3.48ZM149.75,94.83c.9,2.52-2.3,3.35-2.77.55-.16-1.95,2.05-2.22,2.77-.55ZM144.31,88.32c.78-.26,1.2-.37,2.07-.45-.06.66-.08,1.05-.34,1.84-.91.33-1.6.55-2.28.86.01-.57.03-1.43-.04-1.98.17-.09.38-.19.59-.26ZM158.88,97.5l-.09.05c-2.22.93-4.01,2.27-6.45,2.94-4.07,1.07-9.43,1.17-13.85.16.85-2.95,3.65-6.45,6.36-7.63.26-.12.33.1.29.47-.06,1.84.35,3.83,1.68,5.22,3.8,4.16,10,.07,7.98-6.1-.13-.35-.15-.64-.02-.66,1.17.43,4.85,4.67,4.09,5.55Z"/>
  <path class="st0" d="M166.76,89.57c.83,1.72,1.5,3.54,1.88,5.42.18.81.29,1.63.47,2.44.36,1.85,1.33,2.41,1.84.82l.02-.07c.72-2.41-.94-9.05-3.42-11.06-.63-.52-1.59.12-1.37.91.14.5.37,1.06.58,1.55Z"/>
  <path class="st0" d="M185.66,130.46v-.14c-.22-.94-.29-2.41.09-3.28.05-.25,0-.48-.21-.61-2.06-.7-1.74,2.46-1.44,3.67.08,1.05,1.41,1.45,1.56.36Z"/>
  <path class="st0" d="M195.28,138.84c-.54-.8-2.32-.43-2.81-1.02-.3-.3-.79-1.22-1.21-1.77-1.26-1.51-3-3.46-5-2.58-.97.54-1.63,1.59-2.84,1.6-1.09.03-1.34-.9-2.39-1.32-1.73-.58-3.5.2-5.05.87-3.38,1.7-7.77,4.78-11.81,6.66-1.52.77-3.14,1.93-4.86,1.55-1.06-.07-1.97-.72-2.99-.76-.64.04-1.18.76-1.02,1.41.06.31.33.55.63.66,1.84.54,3.8.7,5.5,1.6,3.41,1.75,7.94,2.51,11.72,2.72.22.06,2.23.08,1.65.56l-.12.05c-1,.3-2.52.48-3.45,1.13-1.36.91-1.03,2.64.41,2.97,1.64.34,2.96-.84,4.44-1.28,2.22-.7,4.59-.92,6.86-.9,2.36-.01,4.73.33,7.07.46.55-.02.87-.42.84-.92-.35-1.09-1.82-1.3-2.77-1.64-.4-.12-1.05-.23-1.05-.45,0-.08.13-.19.33-.28,1.99-.88,2.79-2.08,3.66-3.67.33-.67.57-1.5.85-2.06.33-.77,1.27-1.2,1.98-1.65.57-.36,1.78-1.06,1.44-1.92ZM187.36,145.32c-.37.27-2.26,1.5-2.54.8-.07-.18-.01-.38.09-.54.12-.15.27-.26.41-.38.67-.58,1.5-1.24,1.91-2.05.27-.52,1-.74,1.38-.29l.05.07c.55.86-.63,1.88-1.3,2.38Z"/>
</svg>
